PathFileType	4	(X/Y/Z)	/Users/niels/Desktop/University/Third Semester/Perception and Action/Exam/Gymnastics Motion Tracking/Code for Gym Tracking/Analyzed Data/Webcam_Backflip/id1_4_trajectory_Sports2D/id1_4_trajectory_Sports2D_px_person00.trc
DataRate	CameraRate	NumFrames	NumMarkers	Units	OrigDataRate	OrigDataStartFrame	OrigNumFrames
29.874476987447697	29.874476987447697	9	22	m	29.874476987447697	179	239
Frame#	Time	Hip			RHip			RKnee			RAnkle			RBigToe			RSmallToe			RHeel			LHip			LKnee			LAnkle			LBigToe			LSmallToe			LHeel			Neck			Head			Nose			RShoulder			RElbow			RWrist			LShoulder			LElbow			LWrist		
		X1	Y1	Z1	X2	Y2	Z2	X3	Y3	Z3	X4	Y4	Z4	X5	Y5	Z5	X6	Y6	Z6	X7	Y7	Z7	X8	Y8	Z8	X9	Y9	Z9	X10	Y10	Z10	X11	Y11	Z11	X12	Y12	Z12	X13	Y13	Z13	X14	Y14	Z14	X15	Y15	Z15	X16	Y16	Z16	X17	Y17	Z17	X18	Y18	Z18	X19	Y19	Z19	X20	Y20	Z20	X21	Y21	Z21	X22	Y22	Z22
179	5.991736694677871	0.8430100856141336	-0.6045959640662515	0.0	0.8343817165912106	-0.6024627041784122	0.0	0.8273146509365945	-0.7058480336423124	0.0	0.8109457161988104	-0.8202777587500834	0.0	0.8543574783617253	-0.8405962398560785	0.0	0.8450156194946994	-0.8448792834434264	0.0	0.7986556412273318	-0.837567557266031	0.0	0.8550401380546501	-0.6040158941848349	0.0	0.8446962420384094	-0.7067377124003059	0.0	0.8296613036322458	-0.8151133294231163	0.0	0.8723167373777171	-0.8373508606480672	0.0	0.8666594585371604	-0.8337994584208668	0.0	0.8189249458845923	-0.8314540931910489	0.0	0.869023852133647	-0.4405747384764042	0.0	0.922170603092115	-0.38368672692761513	0.0	0.9148637603754233	-0.4298129352463899	0.0	0.8389396253263283	-0.4544323989978	0.0	0.8030458426892678	-0.5241611028122548	0.0	0.8222185089113678	-0.5983993768768885	0.0	0.8684139223809345	-0.46088056113809917	0.0	0.8396608296173004	-0.528237280418683	0.0	0.8508368825053264	-0.5971742797306625	0.0
180	6.025210084033613	0.8436692313076727	-0.6083323036512115	0.0	0.8350463361594832	-0.6060254785375556	0.0	0.8275080840828508	-0.7104727550704587	0.0	0.8112205156386638	-0.8246140153957805	0.0	0.8539325335486088	-0.8451063606427186	0.0	0.8451419008886423	-0.8492035767439164	0.0	0.7991581525278849	-0.8415805433429158	0.0	0.8555430235694653	-0.6076602405517377	0.0	0.8449542169118793	-0.7113478432248003	0.0	0.8299898230297945	-0.8198263657761126	0.0	0.8722065113645155	-0.8418458200723209	0.0	0.8666184751887304	-0.8382606504882573	0.0	0.8196479431460296	-0.8357595202479198	0.0	0.8685876288471676	-0.44498607350979796	0.0	0.9212617452491634	-0.3876153976373553	0.0	0.9145089585556834	-0.4337545445774413	0.0	0.8381947734589457	-0.45908356346858953	0.0	0.805245293332054	-0.5300468412628555	0.0	0.8268324561386138	-0.6032431831081431	0.0	0.8680110447121527	-0.4655452129870281	0.0	0.8422996395933426	-0.5342866799191854	0.0	0.855917307580619	-0.6024159312226446	0.0
181	6.0586834733893555	0.8442211255422962	-0.610651652895333	0.0	0.8356705029165004	-0.6082035442048727	0.0	0.8279551569865973	-0.713400161033738	0.0	0.8114700732345741	-0.8277199555196257	0.0	0.853699770683857	-0.8483716819003863	0.0	0.8454367692811467	-0.852095896647421	0.0	0.7995244510739226	-0.8444398169561841	0.0	0.8559808984269401	-0.6098409316687061	0.0	0.8453717102313223	-0.714419708261804	0.0	0.8305237465774526	-0.8234047118472476	0.0	0.8721034671159716	-0.8453749483013902	0.0	0.8667810004645873	-0.8417588699673375	0.0	0.8207285033311043	-0.8390544162479949	0.0	0.8680996568453063	-0.4482224155428606	0.0	0.9202626936702919	-0.39032272876841867	0.0	0.9141074979172295	-0.43669074854732975	0.0	0.8374421294570841	-0.4625637427341132	0.0	0.8071736427214926	-0.5345589884976789	0.0	0.8307415533407628	-0.606870072186561	0.0	0.8676984609600127	-0.4690980440870618	0.0	0.8456660813027518	-0.5394388360870396	0.0	0.8615426457560118	-0.6063897045213001	0.0
182	6.092156862745098	0.8447113316095372	-0.6113091738020927	0.0	0.8362442661817946	-0.6088048832328674	0.0	0.8286029050224989	-0.714407873723246	0.0	0.8116842006216547	-0.8293116246571086	0.0	0.8538642258499084	-0.8501145015640946	0.0	0.8459827409901507	-0.8534091518120079	0.0	0.7997147691103977	-0.8459298972685616	0.0	0.8563630748809506	-0.6103369260003333	0.0	0.8458945787769129	-0.7157156110970885	0.0	0.8310841376917022	-0.8255088851801375	0.0	0.8721002785567205	-0.8475759561457947	0.0	0.867156693993666	-0.8439358996141507	0.0	0.8218335580037255	-0.8410408196928627	0.0	0.8675822836512052	-0.4498541371903536	0.0	0.9192569369844975	-0.39154009632647907	0.0	0.9136037994915428	-0.43815599546191775	0.0	0.8367297153592909	-0.46449091362632683	0.0	0.8086190485377392	-0.5371933032164896	0.0	0.8336772560581592	-0.6088107110243846	0.0	0.8674769705711357	-0.47107896309525543	0.0	0.8492357062031807	-0.5430473891959363	0.0	0.8671100271073554	-0.6083863769576904	0.0
183	6.12563025210084	0.8451846309391849	-0.610347950457976	0.0	0.836754868567616	-0.6078842174910835	0.0	0.8293223267114606	-0.713672273197688	0.0	0.8118501481970709	-0.8293356707429157	0.0	0.854636538110332	-0.8503317482089225	0.0	0.8468565235447427	-0.853288207734671	0.0	0.799785726437964	-0.8460002449338775	0.0	0.8567419691813747	-0.6092268225868254	0.0	0.8464355966785521	-0.7153010572517636	0.0	0.8315322371799602	-0.82600025521142	0.0	0.8723249473710759	-0.8482820583860805	0.0	0.8677728798291533	-0.8446150491233442	0.0	0.8226596554598469	-0.8415944326556851	0.0	0.8670473596176612	-0.44975874537019994	0.0	0.9183379883735511	-0.39123669598061384	0.0	0.9129892606120771	-0.4379827705133664	0.0	0.8360896133917969	-0.464751769908794	0.0	0.809504595700582	-0.5378119102158629	0.0	0.8355384273658216	-0.6089353710839135	0.0	0.8672908630757199	-0.47129328544419236	0.0	0.8522571815593148	-0.5446507358557585	0.0	0.8718622241408226	-0.608102950629081	0.0
184	6.159103641456582	0.8456390932374438	-0.6079899661623392	0.0	0.8371864052440499	-0.6056497404310823	0.0	0.8300007324711015	-0.7115706801572048	0.0	0.8119901991087864	-0.8278904775689486	0.0	0.8562377768000382	-0.8491013634144189	0.0	0.8482011423774409	-0.85189225107406	0.0	0.7998256551062608	-0.8446824478615788	0.0	0.8571467789314	-0.6067704281944386	0.0	0.8469091747073408	-0.7134337588575826	0.0	0.8318181044609944	-0.824876108388807	0.0	0.872883192131771	-0.847455602985592	0.0	0.8686615738311633	-0.8437456591062026	0.0	0.8230620567395192	-0.8406779781496594	0.0	0.8664804768226501	-0.44807477419512926	0.0	0.917470249515024	-0.38946506358414945	0.0	0.9122684069390887	-0.4363007271009511	0.0	0.8355523768309059	-0.46342412293602814	0.0	0.8098487754541239	-0.5365642726053179	0.0	0.8363585463430482	-0.6073802862803943	0.0	0.8670863247748765	-0.4698091933858316	0.0	0.8542376431378184	-0.5441364593319532	0.0	0.8752792953785005	-0.6057132581187823	0.0
185	6.192577030812325	0.8460251638178037	-0.6045720808070789	0.0	0.8375301250321849	-0.6024111913362836	0.0	0.8305757543656561	-0.7085240219436287	0.0	0.8121418325498225	-0.825193579618981	0.0	0.8585246918033521	-0.8465461058333842	0.0	0.849898275024418	-0.84932041079573	0.0	0.7998624453141334	-0.8421201789182988	0.0	0.8575578241795171	-0.6033227991148408	0.0	0.847270708762237	-0.7104932649473634	0.0	0.8319665950418491	-0.8222570477254095	0.0	0.8736457977050806	-0.8452015734780733	0.0	0.869676046032432	-0.8414355121152952	0.0	0.8231067161420634	-0.8383406313986083	0.0	0.8658851358745833	-0.4451157190560988	0.0	0.9165590672940414	-0.3863589886276826	0.0	0.9114672533788423	-0.4334089407577168	0.0	0.8351476538084227	-0.46073857642919563	0.0	0.8097476389331496	-0.5337733685026036	0.0	0.8362746493267779	-0.6044835809290037	0.0	0.866875943451899	-0.46691766874635016	0.0	0.8551569791265504	-0.5417664758814276	0.0	0.8772614141490749	-0.6017539598758084	0.0
186	6.226050420168067	0.8463001232513083	-0.6004757550709428	0.0	0.8377894925620536	-0.5985285067725526	0.0	0.8310046148342648	-0.7048981250057696	0.0	0.8122807824143281	-0.8215816896790767	0.0	0.8607603897462056	-0.8429635199288411	0.0	0.8513730364156906	-0.8457868169384303	0.0	0.7998575942448056	-0.8386287642616054	0.0	0.8579455940240958	-0.5992597252408889	0.0	0.8475284191875206	-0.7068759362855461	0.0	0.8320342461680685	-0.818448199047629	0.0	0.8742474735306941	-0.8418400166193818	0.0	0.8704732601005957	-0.8380105940623739	0.0	0.823005210433945	-0.8348175184032816	0.0	0.8653102981707996	-0.44125730456956663	0.0	0.9156092606307352	-0.3821966520809794	0.0	0.9106629362613534	-0.42961728347099326	0.0	0.834889389132628	-0.45704387447187855	0.0	0.8093291275977947	-0.5298433507243255	0.0	0.8354917542578418	-0.6006879510237411	0.0	0.8667188618711623	-0.4630330372921804	0.0	0.85530888139837	-0.5380196957285601	0.0	0.8780492097251891	-0.596922776930482	0.0
187	6.2595238095238095	0.8464769351010488	-0.5960506993043493	0.0	0.8379668873585383	-0.5943395056474073	0.0	0.8312600068802938	-0.7009708683363173	0.0	0.8123269232874263	-0.8174735925469371	0.0	0.8620786053263327	-0.8388489951676307	0.0	0.8520069901572532	-0.8417250356680747	0.0	0.7997861488856753	-0.8346478649832033	0.0	0.8582978379635846	-0.5949081137221703	0.0	0.8477183043705027	-0.702906582989435	0.0	0.8320639563665417	-0.8139297730146118	0.0	0.8743781958435379	-0.8378601255194337	0.0	0.8707748180376192	-0.8339500014872473	0.0	0.8229482362103682	-0.8305421098157151	0.0	0.8648281712294166	-0.436891695826583	0.0	0.9147566685136671	-0.37738921690355337	0.0	0.909974634352879	-0.4251904910328663	0.0	0.8347446955724285	-0.45275392599439385	0.0	0.8086831857902758	-0.5252261398546955	0.0	0.8342341981096842	-0.5964245483947304	0.0	0.8666548802008318	-0.45860776724865754	0.0	0.8550887628279313	-0.5334518227437194	0.0	0.8780584007893674	-0.5919011461823832	0.0
